<svg version="1.1" id="Layer_1" xmlns="http://www.w3.org/2000/svg" xmlns:xlink="http://www.w3.org/1999/xlink" x="0px" y="0px"
	 width="100%" viewBox="0 0 180 180" enable-background="new 0 0 180 180" xml:space="preserve">
<path fill="#000000" opacity="1.000000" stroke="none" 
	d="
M181.000000,66.000000 
	C181.000000,104.666664 181.000000,142.833328 181.000000,181.000000 
	C121.000000,181.000000 61.000000,181.000000 1.000000,181.000000 
	C1.000000,121.000000 1.000000,61.000000 1.000000,1.000000 
	C61.000000,1.000000 121.000000,1.000000 181.000000,1.000000 
	C181.000000,22.500000 181.000000,44.000000 181.000000,66.000000 
M163.668320,38.282513 
	C160.904465,27.344481 154.118881,20.567978 142.064056,18.109083 
	C124.381401,18.155426 106.698753,18.201769 88.344604,18.088310 
	C87.890816,18.142162 87.437035,18.196014 86.057419,18.109190 
	C70.710968,18.155281 55.364513,18.201372 39.274563,18.211243 
	C28.752031,20.919582 21.891008,27.327065 19.101810,38.937698 
	C19.150497,73.619751 19.199184,108.301804 19.327047,143.707703 
	C22.250126,153.816483 28.722721,160.252945 39.938236,162.898926 
	C47.572380,162.920593 55.206593,162.974640 62.840656,162.958130 
	C89.888474,162.899643 116.936241,162.817047 144.698776,162.660828 
	C155.069138,159.474686 161.727753,152.874207 163.890839,141.060562 
	C163.841141,107.046555 163.791428,73.032555 163.668320,38.282513 
z"/>
<path fill="#5DDA62" opacity="1.000000" stroke="none" 
	d="
M39.015148,162.737427 
	C28.722721,160.252945 22.250126,153.816483 19.578890,143.114716 
	C20.220541,140.792450 20.946501,139.063919 20.950272,137.333817 
	C21.018494,106.033722 21.028402,74.733345 20.925421,43.433437 
	C20.919472,41.625553 19.844524,39.821190 19.267075,38.015186 
	C21.891008,27.327065 28.752031,20.919582 39.877949,18.520163 
	C41.543102,19.208887 42.602921,19.912830 43.666931,19.919218 
	C56.803642,19.998095 69.941414,20.023804 83.077438,19.902987 
	C84.384331,19.890965 85.681541,18.826094 86.983246,18.249868 
	C87.437035,18.196014 87.890816,18.142162 88.912018,18.459057 
	C90.707535,19.215319 91.933922,19.929951 93.163979,19.936306 
	C108.293327,20.014494 123.423592,20.036129 138.552383,19.916378 
	C140.033585,19.904654 141.506607,18.858551 142.983429,18.292572 
	C154.118881,20.567978 160.904465,27.344481 163.416534,38.884281 
	C162.776352,41.215485 162.053177,42.944176 162.049316,44.674473 
	C161.980942,75.301750 161.970917,105.929321 162.073914,136.556412 
	C162.080002,138.366745 163.147293,140.173523 163.720749,141.981949 
	C161.727753,152.874207 155.069138,159.474686 144.109528,162.411774 
	C141.789978,161.775055 140.060364,161.053055 138.329224,161.049301 
	C107.029579,160.981537 75.729652,160.971588 44.430199,161.074905 
	C42.623371,161.080856 40.820084,162.158524 39.015148,162.737427 
M102.670685,153.081070 
	C103.131454,153.059921 103.592232,153.038788 104.901123,153.011719 
	C112.160484,153.474686 117.570534,148.981903 123.494232,145.939774 
	C124.290466,145.530869 124.516777,144.012177 125.760849,142.976669 
	C136.043076,139.191269 142.072388,131.134369 146.903595,121.889343 
	C148.032791,119.728516 149.359177,117.609489 150.082565,115.310074 
	C151.789246,109.885078 153.187439,104.363029 154.749039,97.969109 
	C154.788559,93.967575 154.828079,89.966042 154.980194,85.124916 
	C152.588821,52.788406 129.093658,29.538988 94.707413,25.210083 
	C93.911194,24.685905 93.045433,23.629002 92.329842,23.722424 
	C86.946579,24.425220 81.414276,24.761612 76.260414,26.314159 
	C52.088650,33.595669 36.636471,49.967701 28.533480,73.545868 
	C27.928799,75.305367 28.746813,77.553802 28.631195,80.231621 
	C28.491310,81.161308 28.351427,82.090996 28.025391,83.938507 
	C27.977257,87.761566 27.719189,91.595375 27.914124,95.405998 
	C29.507730,126.558167 57.383636,153.641968 88.892860,153.984924 
	C92.546005,153.880341 96.199142,153.775757 100.209915,153.960220 
	C100.807167,153.728470 101.404411,153.496719 102.670685,153.081070 
z"/>
<path fill="#62E768" opacity="1.000000" stroke="none" 
	d="
M39.476692,162.818176 
	C40.820084,162.158524 42.623371,161.080856 44.430199,161.074905 
	C75.729652,160.971588 107.029579,160.981537 138.329224,161.049301 
	C140.060364,161.053055 141.789978,161.775055 143.752167,162.453171 
	C116.936241,162.817047 89.888474,162.899643 62.840656,162.958130 
	C55.206593,162.974640 47.572380,162.920593 39.476692,162.818176 
z"/>
<path fill="#62E768" opacity="1.000000" stroke="none" 
	d="
M19.184443,38.476440 
	C19.844524,39.821190 20.919472,41.625553 20.925421,43.433437 
	C21.028402,74.733345 21.018494,106.033722 20.950272,137.333817 
	C20.946501,139.063919 20.220541,140.792450 19.539301,142.752777 
	C19.199184,108.301804 19.150497,73.619751 19.184443,38.476440 
z"/>
<path fill="#63E968" opacity="1.000000" stroke="none" 
	d="
M163.805786,141.521255 
	C163.147293,140.173523 162.080002,138.366745 162.073914,136.556412 
	C161.970917,105.929321 161.980942,75.301750 162.049316,44.674473 
	C162.053177,42.944176 162.776352,41.215485 163.453232,39.252296 
	C163.791428,73.032555 163.841141,107.046555 163.805786,141.521255 
z"/>
<path fill="#62E867" opacity="1.000000" stroke="none" 
	d="
M142.523743,18.200829 
	C141.506607,18.858551 140.033585,19.904654 138.552383,19.916378 
	C123.423592,20.036129 108.293327,20.014494 93.163979,19.936306 
	C91.933922,19.929951 90.707535,19.215319 89.247772,18.538958 
	C106.698753,18.201769 124.381401,18.155426 142.523743,18.200829 
z"/>
<path fill="#63E968" opacity="1.000000" stroke="none" 
	d="
M86.520332,18.179531 
	C85.681541,18.826094 84.384331,19.890965 83.077438,19.902987 
	C69.941414,20.023804 56.803642,19.998095 43.666931,19.919218 
	C42.602921,19.912830 41.543102,19.208887 40.249699,18.538273 
	C55.364513,18.201372 70.710968,18.155281 86.520332,18.179531 
z"/>
<path fill="#5CDA61" opacity="1.000000" stroke="none" 
	d="
M28.903450,79.574944 
	C28.746813,77.553802 27.928799,75.305367 28.533480,73.545868 
	C36.636471,49.967701 52.088650,33.595669 76.260414,26.314159 
	C81.414276,24.761612 86.946579,24.425220 92.329842,23.722424 
	C93.045433,23.629002 93.911194,24.685905 94.600449,25.616108 
	C94.674271,26.648958 94.855057,27.275787 94.869675,28.198639 
	C90.049828,28.999748 85.339569,29.204712 80.753616,30.069147 
	C69.384247,32.212231 58.920422,36.269066 50.122009,44.265278 
	C40.948624,52.602280 35.623840,62.960579 32.282913,74.643806 
	C31.788227,76.373726 30.275627,77.812561 29.259708,79.496346 
	C29.285450,79.606621 28.903450,79.574944 28.903450,79.574944 
z"/>
<path fill="#0E1F0E" opacity="1.000000" stroke="none" 
	d="
M87.980911,153.856522 
	C57.383636,153.641968 29.507730,126.558167 27.914124,95.405998 
	C27.719189,91.595375 27.977257,87.761566 28.357105,83.488815 
	C28.688822,83.039131 29.166437,83.044579 29.166437,83.044579 
	C29.166437,83.044579 29.643421,83.019417 29.656031,83.420708 
	C29.792940,87.881477 29.917242,91.940956 29.998444,96.357681 
	C30.124922,97.895149 30.294498,99.075378 30.469810,100.565491 
	C30.643082,101.250160 30.810616,101.624924 30.965660,102.390823 
	C34.468140,110.603745 37.983112,118.425545 41.636269,126.522858 
	C42.445580,127.559135 43.116699,128.319901 43.915565,129.391663 
	C44.974266,130.672012 45.905224,131.641342 46.936878,132.812225 
	C47.487667,133.399750 47.937763,133.785721 48.573746,134.458710 
	C50.143372,135.875702 51.527115,137.005661 52.918762,138.101227 
	C52.926670,138.066833 52.861061,138.092819 53.019806,138.361633 
	C54.041050,139.203308 54.903545,139.776184 55.767563,140.310608 
	C55.769089,140.272125 55.692085,140.271667 55.876556,140.526428 
	C56.957497,141.312134 57.853962,141.843079 58.754028,142.337418 
	C58.757629,142.300827 58.684227,142.296402 58.913818,142.555435 
	C66.428680,145.526047 73.713951,148.237640 81.329536,151.090698 
	C82.365623,151.334656 83.071404,151.437164 84.087555,151.643188 
	C85.265038,151.773743 86.132141,151.800751 87.243622,151.913788 
	C87.652458,152.052597 87.816910,152.105392 87.984642,152.441254 
	C87.985580,153.101700 87.983246,153.479111 87.980911,153.856522 
z"/>
<path fill="#102310" opacity="1.000000" stroke="none" 
	d="
M95.035835,27.902618 
	C94.855057,27.275787 94.674271,26.648958 94.745987,25.896368 
	C129.093658,29.538988 152.588821,52.788406 154.653915,85.538002 
	C153.967804,85.938805 153.607986,85.926521 153.159576,85.909729 
	C153.070984,85.905220 152.940826,86.025734 152.989014,85.646179 
	C152.857040,83.757431 152.676865,82.248238 152.476288,80.347076 
	C151.631287,76.969994 150.806686,73.984879 149.984222,70.708450 
	C149.742828,69.903419 149.499298,69.389702 149.233139,68.603149 
	C149.008804,67.825676 148.807098,67.321037 148.499847,66.460098 
	C146.709000,63.013371 145.023697,59.922951 143.216049,56.514725 
	C141.463287,54.105625 139.832886,52.014343 138.066681,49.612831 
	C135.645477,47.135838 133.360092,44.969070 130.922287,42.541527 
	C129.627609,41.479832 128.485336,40.678917 127.131104,39.597973 
	C122.023979,36.832783 117.128807,34.347622 112.009445,31.648670 
	C111.186836,31.309185 110.588409,31.183495 109.672836,30.862011 
	C106.904114,30.129854 104.452545,29.593491 101.669846,28.914928 
	C100.631195,28.667582 99.923660,28.562437 98.950325,28.360516 
	C98.122917,28.259144 97.561302,28.254547 96.677002,28.167805 
	C95.914810,28.024647 95.475327,27.963633 95.035835,27.902618 
z"/>
<path fill="#5CDA61" opacity="1.000000" stroke="none" 
	d="
M154.710388,98.880234 
	C153.187439,104.363029 151.789246,109.885078 150.082565,115.310074 
	C149.359177,117.609489 148.032791,119.728516 146.903595,121.889343 
	C142.072388,131.134369 136.043076,139.191269 125.380219,142.988098 
	C124.999580,142.999512 124.993927,142.992981 125.097878,142.671936 
	C126.578308,140.951874 127.821106,139.382523 129.352341,138.180679 
	C142.003845,128.250748 149.321152,115.387497 151.101624,99.361122 
	C151.231445,98.192490 152.226059,97.119919 152.856216,96.360153 
	C153.499344,97.438499 154.104858,98.159363 154.710388,98.880234 
z"/>
<path fill="#5CDA61" opacity="1.000000" stroke="none" 
	d="
M125.003296,143.003448 
	C124.516777,144.012177 124.290466,145.530869 123.494232,145.939774 
	C117.570534,148.981903 112.160484,153.474686 104.557205,152.686768 
	C103.809402,151.868942 103.405502,151.376068 103.197304,150.590332 
	C110.593315,147.862625 117.793617,145.427811 124.993927,142.992981 
	C124.993927,142.992981 124.999580,142.999512 125.003296,143.003448 
z"/>
<path fill="#163217" opacity="1.000000" stroke="none" 
	d="
M103.001602,150.883209 
	C103.405502,151.376068 103.809402,151.868942 104.133148,152.689728 
	C103.592232,153.038788 103.131454,153.059921 102.057068,153.152252 
	C100.913071,153.372681 100.382683,153.521942 99.852287,153.671188 
	C96.199142,153.775757 92.546005,153.880341 88.436890,153.920715 
	C87.983246,153.479111 87.985580,153.101700 88.238449,152.359589 
	C88.659584,151.944962 88.830177,151.895065 89.431961,151.916992 
	C91.897057,151.930603 93.930969,151.872421 96.232689,151.847122 
	C96.676544,151.843018 96.852585,151.806030 97.351379,151.804291 
	C98.525536,151.712997 99.376953,151.586472 100.585075,151.453644 
	C101.628387,151.259293 102.314995,151.071259 103.001602,150.883209 
z"/>
<path fill="#1F4720" opacity="1.000000" stroke="none" 
	d="
M154.729706,98.424667 
	C154.104858,98.159363 153.499344,97.438499 152.936630,95.908958 
	C153.069016,92.038269 153.158585,88.976257 153.248154,85.914238 
	C153.607986,85.926521 153.967804,85.938805 154.597626,85.957794 
	C154.828079,89.966042 154.788559,93.967575 154.729706,98.424667 
z"/>
<path fill="#142D15" opacity="1.000000" stroke="none" 
	d="
M29.643421,83.019417 
	C29.643421,83.019417 29.166437,83.044579 29.166437,83.044579 
	C29.166437,83.044579 28.688822,83.039131 28.450184,83.029907 
	C28.351427,82.090996 28.491310,81.161308 28.767323,79.903282 
	C28.903450,79.574944 29.285450,79.606621 29.477898,79.807312 
	C29.661369,81.011803 29.652395,82.015610 29.643421,83.019417 
z"/>
<path fill="#5CDA61" opacity="1.000000" stroke="none" 
	d="
M100.031097,153.815704 
	C100.382683,153.521942 100.913071,153.372681 101.722565,153.244202 
	C101.404411,153.496719 100.807167,153.728470 100.031097,153.815704 
z"/>
<path fill="#5DDA62" opacity="1.000000" stroke="none" 
	d="
M29.656029,83.420708 
	C29.652395,82.015610 29.661369,81.011803 29.452156,79.697037 
	C30.275627,77.812561 31.788227,76.373726 32.282913,74.643806 
	C35.623840,62.960579 40.948624,52.602280 50.122009,44.265278 
	C58.920422,36.269066 69.384247,32.212231 80.753616,30.069147 
	C85.339569,29.204712 90.049828,28.999748 94.869675,28.198641 
	C95.475327,27.963633 95.914810,28.024647 96.803902,28.367783 
	C97.907707,28.585701 98.561920,28.521496 99.216125,28.457291 
	C99.923660,28.562437 100.631195,28.667582 101.842468,29.207394 
	C104.894127,30.113974 107.442062,30.585890 109.989990,31.057804 
	C110.588409,31.183495 111.186836,31.309185 111.885971,31.897478 
	C117.105484,34.866055 122.224274,37.372028 127.343071,39.878006 
	C128.485336,40.678917 129.627609,41.479832 130.945892,42.913681 
	C131.917603,47.409344 134.215836,49.603615 138.202469,49.923061 
	C139.832886,52.014343 141.463287,54.105625 143.040771,56.779518 
	C144.860367,60.513546 146.732895,63.664970 148.605408,66.816399 
	C148.807098,67.321037 149.008804,67.825676 149.104340,68.798889 
	C149.326141,69.844887 149.654114,70.422325 149.982086,70.999763 
	C150.806686,73.984879 151.631287,76.969994 152.242340,80.630058 
	C152.332825,82.878578 152.636826,84.452156 152.940826,86.025734 
	C152.940826,86.025734 153.070984,85.905220 153.159576,85.909729 
	C153.158585,88.976257 153.069016,92.038269 152.899033,95.551483 
	C152.226059,97.119919 151.231445,98.192490 151.101624,99.361122 
	C149.321152,115.387497 142.003845,128.250748 129.352341,138.180679 
	C127.821106,139.382523 126.578308,140.951874 125.097878,142.671936 
	C117.793617,145.427811 110.593315,147.862625 103.197304,150.590332 
	C102.314995,151.071259 101.628387,151.259293 100.381012,151.270660 
	C98.889709,151.319016 97.959167,151.544022 97.028633,151.769043 
	C96.852585,151.806030 96.676544,151.843018 95.991600,151.602264 
	C93.179817,149.727280 90.963829,149.211792 89.000771,151.845169 
	C88.830177,151.895065 88.659584,151.944962 88.235176,152.076538 
	C87.816910,152.105392 87.652458,152.052597 87.092773,151.666245 
	C85.724075,151.401688 84.750626,151.470673 83.777176,151.539673 
	C83.071404,151.437164 82.365623,151.334656 81.159866,150.786407 
	C74.803612,147.784531 68.978706,145.151764 63.066639,142.731979 
	C61.764545,142.199036 60.153179,142.421692 58.684227,142.296402 
	C58.684227,142.296402 58.757629,142.300827 58.656075,142.004730 
	C57.600372,141.229660 56.646229,140.750656 55.692085,140.271667 
	C55.692085,140.271667 55.769089,140.272125 55.674026,139.984940 
	C54.672993,139.162781 53.767025,138.627792 52.861061,138.092819 
	C52.861061,138.092819 52.926670,138.066833 52.886463,137.717133 
	C51.360123,136.302185 49.873989,135.236923 48.387859,134.171677 
	C47.937763,133.785721 47.487667,133.399750 46.912422,132.426529 
	C45.787453,130.919739 44.787636,130.000198 43.787819,129.080658 
	C43.116699,128.319901 42.445580,127.559135 41.826000,126.275772 
	C39.916626,121.146751 38.038223,116.502846 35.967510,111.946327 
	C34.433994,108.571884 32.650360,105.311104 30.978149,101.999695 
	C30.810616,101.624924 30.643082,101.250160 30.696968,100.310730 
	C30.626108,98.497528 30.333826,97.248978 30.041544,96.000435 
	C29.917242,91.940956 29.792940,87.881477 29.656029,83.420708 
M133.878677,92.380768 
	C131.779800,89.251289 129.061203,88.411133 125.433228,89.653748 
	C122.380455,90.699348 119.178085,91.308151 115.588837,91.673424 
	C114.267365,91.110001 112.945900,90.546577 111.397873,89.087593 
	C111.519424,84.698479 111.640976,80.309364 112.192268,75.664001 
	C112.458977,75.464027 112.725677,75.264061 113.666527,74.708702 
	C118.600418,73.228775 123.619835,71.976089 128.429398,70.165855 
	C130.591507,69.352074 132.334305,67.424210 134.756531,65.689087 
	C134.589096,64.458794 134.421677,63.228504 133.865753,61.388588 
	C131.104294,56.608223 126.957146,58.409256 122.664230,58.881016 
	C122.109222,59.191166 121.554207,59.501320 120.365814,60.109264 
	C119.472504,60.266418 118.579193,60.423573 116.864723,60.263817 
	C115.580460,58.455044 114.141548,56.733047 113.062134,54.809330 
	C112.236298,53.337540 111.864937,51.610737 110.992844,49.370968 
	C109.662766,48.144699 108.332680,46.918430 106.741608,45.246147 
	C105.826454,45.382629 104.911308,45.519115 103.334435,45.974754 
	C97.392403,49.006687 99.595322,54.575256 99.420235,59.236237 
	C99.137375,66.766144 99.340202,66.773766 91.668571,67.891434 
	C91.112167,68.203262 90.555771,68.515083 89.362335,69.119102 
	C88.474129,69.255867 87.585915,69.392632 85.795700,69.319557 
	C84.573013,69.212883 83.350334,69.106209 81.981819,68.109085 
	C81.294456,64.143578 80.607094,60.178078 79.792953,55.748318 
	C79.189331,55.517250 78.585716,55.286186 77.189453,55.049503 
	C72.809540,54.656185 70.506447,56.861225 69.039139,61.197914 
	C68.361252,62.865131 67.380493,64.478317 67.071312,66.211319 
	C66.504822,69.386620 66.334770,72.632652 65.324074,76.180023 
	C62.892551,76.813087 60.461025,77.446144 57.650383,77.858276 
	C57.099957,78.174171 56.549526,78.490059 55.328053,79.104111 
	C54.864746,79.282089 54.403858,79.466675 53.937759,79.637016 
	C49.171047,81.379135 47.401222,83.980507 48.829250,87.628113 
	C50.397343,91.633492 53.465298,92.319771 57.343487,91.099876 
	C60.169170,90.211037 63.078686,89.588715 66.142326,89.678223 
	C66.094582,95.402489 66.046829,101.126747 65.305527,107.176544 
	C61.020523,108.465897 56.682453,109.604958 52.467644,111.093117 
	C49.215767,112.241295 47.784821,114.836884 48.713928,118.215729 
	C49.633968,121.561630 52.070190,122.991890 55.540169,122.500847 
	C56.684956,122.338844 57.817917,122.093277 59.425350,122.195435 
	C60.283562,121.797562 61.141773,121.399689 62.524063,120.634735 
	C63.134121,120.481300 63.744175,120.327873 64.960594,120.814720 
	C65.655281,122.602379 66.245644,124.440216 67.074432,126.163376 
	C67.879341,127.836861 68.928871,129.392700 70.187561,131.613922 
	C71.788086,134.458511 73.961746,136.272614 77.438950,135.239822 
	C81.075783,134.159637 81.982224,131.329163 81.963173,127.892151 
	C81.941208,123.928680 82.055969,119.964455 82.715881,115.916626 
	C83.477470,115.336777 84.239059,114.756920 85.703041,113.852180 
	C87.753670,113.228722 89.794563,112.570816 91.856712,111.988136 
	C98.642242,110.070839 99.357414,110.531212 99.311600,117.374527 
	C99.285591,121.259392 99.817413,124.668694 104.258987,126.705688 
	C105.173019,126.540253 106.087051,126.374817 107.601891,125.895508 
	C108.820686,124.597557 110.039490,123.299614 111.839714,121.538452 
	C112.226524,116.382904 112.613342,111.227364 113.666542,105.712997 
	C117.100792,104.781265 120.535034,103.849525 124.348213,103.139534 
	C124.899117,102.824287 125.450012,102.509048 126.675362,101.893257 
	C129.206085,100.262787 131.736816,98.632324 134.756531,96.689423 
	C134.591476,95.458954 134.426407,94.228477 133.878677,92.380768 
z"/>
<path fill="#5CDA61" opacity="1.000000" stroke="none" 
	d="
M30.965658,102.390823 
	C32.650360,105.311104 34.433994,108.571884 35.967510,111.946327 
	C38.038223,116.502846 39.916626,121.146751 41.687813,126.000252 
	C37.983112,118.425545 34.468140,110.603745 30.965658,102.390823 
z"/>
<path fill="#5CDA61" opacity="1.000000" stroke="none" 
	d="
M58.913818,142.555435 
	C60.153179,142.421692 61.764545,142.199036 63.066639,142.731979 
	C68.978706,145.151764 74.803612,147.784531 80.829544,150.644943 
	C73.713951,148.237640 66.428680,145.526047 58.913818,142.555435 
z"/>
<path fill="#5CDA61" opacity="1.000000" stroke="none" 
	d="
M48.573746,134.458710 
	C49.873989,135.236923 51.360123,136.302185 52.878555,137.751526 
	C51.527115,137.005661 50.143372,135.875702 48.573746,134.458710 
z"/>
<path fill="#5CDA61" opacity="1.000000" stroke="none" 
	d="
M29.998444,96.357681 
	C30.333826,97.248978 30.626108,98.497528 30.691231,100.000839 
	C30.294498,99.075378 30.124922,97.895149 29.998444,96.357681 
z"/>
<path fill="#5CDA61" opacity="1.000000" stroke="none" 
	d="
M43.915565,129.391663 
	C44.787636,130.000198 45.787453,130.919739 46.811726,132.224976 
	C45.905224,131.641342 44.974266,130.672012 43.915565,129.391663 
z"/>
<path fill="#5CDA61" opacity="1.000000" stroke="none" 
	d="
M84.087555,151.643188 
	C84.750626,151.470673 85.724075,151.401688 86.848381,151.580231 
	C86.132141,151.800751 85.265038,151.773743 84.087555,151.643188 
z"/>
<path fill="#5CDA61" opacity="1.000000" stroke="none" 
	d="
M53.019806,138.361633 
	C53.767025,138.627792 54.672993,139.162781 55.672501,140.023407 
	C54.903545,139.776184 54.041050,139.203308 53.019806,138.361633 
z"/>
<path fill="#5CDA61" opacity="1.000000" stroke="none" 
	d="
M55.876556,140.526428 
	C56.646229,140.750656 57.600372,141.229660 58.652473,142.041321 
	C57.853962,141.843079 56.957497,141.312134 55.876556,140.526428 
z"/>
<path fill="#5CDA61" opacity="1.000000" stroke="none" 
	d="
M127.131104,39.597969 
	C122.224274,37.372028 117.105484,34.866055 112.110168,32.111271 
	C117.128807,34.347622 122.023979,36.832783 127.131104,39.597969 
z"/>
<path fill="#5CDA61" opacity="1.000000" stroke="none" 
	d="
M148.499847,66.460098 
	C146.732895,63.664970 144.860367,60.513546 143.163116,57.097328 
	C145.023697,59.922951 146.709000,63.013371 148.499847,66.460098 
z"/>
<path fill="#5CDA61" opacity="1.000000" stroke="none" 
	d="
M138.066681,49.612831 
	C134.215836,49.603615 131.917603,47.409344 131.098297,43.174461 
	C133.360092,44.969070 135.645477,47.135838 138.066681,49.612831 
z"/>
<path fill="#5CDA61" opacity="1.000000" stroke="none" 
	d="
M109.672836,30.862013 
	C107.442062,30.585890 104.894127,30.113974 102.173584,29.349592 
	C104.452545,29.593491 106.904114,30.129854 109.672836,30.862013 
z"/>
<path fill="#5CDA61" opacity="1.000000" stroke="none" 
	d="
M152.989014,85.646179 
	C152.636826,84.452156 152.332825,82.878578 152.262756,81.022034 
	C152.676865,82.248238 152.857040,83.757431 152.989014,85.646179 
z"/>
<path fill="#5CDA61" opacity="1.000000" stroke="none" 
	d="
M149.984222,70.708450 
	C149.654114,70.422325 149.326141,69.844887 149.126984,69.071716 
	C149.499298,69.389702 149.742828,69.903419 149.984222,70.708450 
z"/>
<path fill="#5CDA61" opacity="1.000000" stroke="none" 
	d="
M98.950325,28.360516 
	C98.561920,28.521496 97.907707,28.585701 97.126602,28.449928 
	C97.561302,28.254547 98.122917,28.259144 98.950325,28.360516 
z"/>
<path fill="#5CDA61" opacity="1.000000" stroke="none" 
	d="
M89.431961,151.916992 
	C90.963829,149.211792 93.179817,149.727280 95.723785,151.569366 
	C93.930969,151.872421 91.897057,151.930603 89.431961,151.916992 
z"/>
<path fill="#5CDA61" opacity="1.000000" stroke="none" 
	d="
M97.351379,151.804291 
	C97.959167,151.544022 98.889709,151.319016 100.024307,151.276978 
	C99.376953,151.586472 98.525536,151.712997 97.351379,151.804291 
z"/>
<path fill="#020502" opacity="1.000000" stroke="none" 
	d="
M117.685883,60.580723 
	C118.579193,60.423573 119.472504,60.266418 120.964157,59.977306 
	C122.055580,59.600105 122.548653,59.354866 123.041733,59.109627 
	C126.957146,58.409256 131.104294,56.608223 134.068115,62.094509 
	C134.269424,63.867573 134.268387,64.934715 134.267365,66.001854 
	C132.334305,67.424210 130.591507,69.352074 128.429398,70.165855 
	C123.619835,71.976089 118.600418,73.228775 113.040848,74.888962 
	C112.197609,75.352898 111.980064,75.636574 111.762527,75.920250 
	C111.640976,80.309364 111.519424,84.698479 111.400986,89.848572 
	C111.436142,91.048401 111.468178,91.487259 111.411171,92.155151 
	C111.892311,92.622231 112.462502,92.860275 113.356049,93.073952 
	C114.466927,92.736488 115.254433,92.423401 116.041939,92.110321 
	C119.178085,91.308151 122.380455,90.699348 125.433228,89.653748 
	C129.061203,88.411133 131.779800,89.251289 134.077209,93.090530 
	C134.273010,94.867477 134.270279,95.934669 134.267548,97.001862 
	C131.736816,98.632324 129.206085,100.262787 126.056648,102.023529 
	C124.948380,102.408463 124.458832,102.663124 123.969284,102.917786 
	C120.535034,103.849525 117.100792,104.781265 112.938934,105.966316 
	C111.893646,111.480309 111.575966,116.740990 111.258286,122.001663 
	C110.039490,123.299614 108.820686,124.597557 106.926613,126.019379 
	C105.500404,126.177681 104.749481,126.212120 103.998550,126.246567 
	C99.817413,124.668694 99.285591,121.259392 99.311600,117.374527 
	C99.357414,110.531212 98.642242,110.070839 91.856712,111.988136 
	C89.794563,112.570816 87.753670,113.228722 85.027046,114.002380 
	C83.604485,114.768570 82.857925,115.384567 82.111359,116.000565 
	C82.055969,119.964455 81.941208,123.928680 81.963173,127.892151 
	C81.982224,131.329163 81.075783,134.159637 77.438950,135.239822 
	C73.961746,136.272614 71.788086,134.458511 70.062164,130.846649 
	C69.936775,126.465607 69.936775,122.851860 69.936775,118.575752 
	C67.730751,119.207497 66.042488,119.690964 64.354233,120.174438 
	C63.744175,120.327873 63.134121,120.481300 61.935368,120.801559 
	C60.549877,121.274223 59.753078,121.580063 58.956284,121.885910 
	C57.817917,122.093277 56.684956,122.338844 55.540169,122.500847 
	C52.070190,122.991890 49.633968,121.561630 48.713928,118.215729 
	C47.784821,114.836884 49.215767,112.241295 52.467644,111.093117 
	C56.682453,109.604958 61.020523,108.465897 66.049591,107.011780 
	C67.834045,105.695648 69.689827,104.599586 69.772339,103.383232 
	C70.112556,98.367653 69.914810,93.315575 69.914810,87.641701 
	C68.281624,88.138535 67.116226,88.493057 65.950829,88.847588 
	C63.078686,89.588715 60.169170,90.211037 57.343487,91.099876 
	C53.465298,92.319771 50.397343,91.633492 48.829250,87.628113 
	C47.401222,83.980507 49.171047,81.379135 53.937759,79.637016 
	C54.403858,79.466675 54.864746,79.282089 55.945004,78.974106 
	C57.051136,78.589142 57.540321,78.334175 58.029503,78.079208 
	C60.461025,77.446144 62.892551,76.813087 66.057602,76.005562 
	C67.833397,74.503578 69.618172,73.256210 69.771843,71.832748 
	C70.157158,68.263611 69.804146,64.614769 69.747261,60.997894 
	C70.506447,56.861225 72.809540,54.656185 77.773880,55.271683 
	C78.878784,55.733433 79.399254,55.973003 79.919731,56.212574 
	C80.607094,60.178078 81.294456,64.143578 81.992920,68.919525 
	C83.568581,69.663109 85.133141,69.596252 86.697708,69.529396 
	C87.585915,69.392632 88.474129,69.255867 89.962906,68.991859 
	C91.057976,68.617210 91.552460,68.369797 92.046951,68.122391 
	C99.340202,66.773766 99.137375,66.766144 99.420235,59.236237 
	C99.595322,54.575256 97.392403,49.006687 104.040787,45.841206 
	C105.498962,45.702492 106.250778,45.697327 107.002602,45.692162 
	C108.332680,46.918430 109.662766,48.144699 111.126022,50.145058 
	C111.259209,54.652824 111.259209,58.386497 111.259209,62.894329 
	C114.073158,61.881306 115.879524,61.231010 117.685883,60.580723 
M88.486565,81.974083 
	C86.309418,83.308701 82.515526,84.386421 82.255058,86.025597 
	C81.439072,91.160896 81.955139,96.507858 81.955139,102.301620 
	C85.413712,101.347328 88.274315,100.590469 91.115875,99.767845 
	C99.353699,97.382996 99.350700,97.372635 99.350746,88.754036 
	C99.350792,78.702194 99.350792,78.702194 88.486565,81.974083 
z"/>
<path fill="#5CDA61" opacity="1.000000" stroke="none" 
	d="
M66.046577,89.262909 
	C67.116226,88.493057 68.281624,88.138535 69.914810,87.641701 
	C69.914810,93.315575 70.112556,98.367653 69.772339,103.383232 
	C69.689827,104.599586 67.834045,105.695648 66.396362,106.849014 
	C66.046829,101.126747 66.094582,95.402489 66.046577,89.262909 
z"/>
<path fill="#5CDA61" opacity="1.000000" stroke="none" 
	d="
M69.393204,61.097904 
	C69.804146,64.614769 70.157158,68.263611 69.771843,71.832748 
	C69.618172,73.256210 67.833397,74.503578 66.395279,75.840149 
	C66.334770,72.632652 66.504822,69.386620 67.071312,66.211319 
	C67.380493,64.478317 68.361252,62.865131 69.393204,61.097904 
z"/>
<path fill="#5CDA61" opacity="1.000000" stroke="none" 
	d="
M64.657410,120.494583 
	C66.042488,119.690964 67.730751,119.207497 69.936775,118.575752 
	C69.936775,122.851860 69.936775,126.465607 69.903885,130.539780 
	C68.928871,129.392700 67.879341,127.836861 67.074432,126.163376 
	C66.245644,124.440216 65.655281,122.602379 64.657410,120.494583 
z"/>
<path fill="#5CDA61" opacity="1.000000" stroke="none" 
	d="
M117.275299,60.422268 
	C115.879524,61.231010 114.073158,61.881306 111.259209,62.894329 
	C111.259209,58.386497 111.259209,54.652824 111.275314,50.458260 
	C111.864937,51.610737 112.236298,53.337540 113.062134,54.809330 
	C114.141548,56.733047 115.580460,58.455044 117.275299,60.422268 
z"/>
<path fill="#5CDA61" opacity="1.000000" stroke="none" 
	d="
M111.548996,121.770058 
	C111.575966,116.740990 111.893646,111.480309 112.605743,106.145721 
	C112.613342,111.227364 112.226524,116.382904 111.548996,121.770058 
z"/>
<path fill="#5CDA61" opacity="1.000000" stroke="none" 
	d="
M115.815384,91.891869 
	C115.254433,92.423401 114.466927,92.736488 113.180405,92.906570 
	C112.287666,92.484421 111.893936,92.205269 111.500214,91.926117 
	C111.468178,91.487259 111.436142,91.048401 111.514267,90.296349 
	C112.945900,90.546577 114.267365,91.110001 115.815384,91.891869 
z"/>
<path fill="#5CDA61" opacity="1.000000" stroke="none" 
	d="
M134.511948,65.845474 
	C134.268387,64.934715 134.269424,63.867573 134.262360,62.399323 
	C134.421677,63.228504 134.589096,64.458794 134.511948,65.845474 
z"/>
<path fill="#5CDA61" opacity="1.000000" stroke="none" 
	d="
M134.512039,96.845642 
	C134.270279,95.934669 134.273010,94.867477 134.268539,93.399147 
	C134.426407,94.228477 134.591476,95.458954 134.512039,96.845642 
z"/>
<path fill="#5CDA61" opacity="1.000000" stroke="none" 
	d="
M86.246704,69.424477 
	C85.133141,69.596252 83.568581,69.663109 82.065826,69.364746 
	C83.350334,69.106209 84.573013,69.212883 86.246704,69.424477 
z"/>
<path fill="#5CDA61" opacity="1.000000" stroke="none" 
	d="
M106.872101,45.469154 
	C106.250778,45.697327 105.498962,45.702492 104.371643,45.681625 
	C104.911308,45.519115 105.826454,45.382629 106.872101,45.469154 
z"/>
<path fill="#5CDA61" opacity="1.000000" stroke="none" 
	d="
M104.128769,126.476120 
	C104.749481,126.212120 105.500404,126.177681 106.626205,126.176308 
	C106.087051,126.374817 105.173019,126.540253 104.128769,126.476120 
z"/>
<path fill="#5CDA61" opacity="1.000000" stroke="none" 
	d="
M59.190819,122.040672 
	C59.753078,121.580063 60.549877,121.274223 61.673328,120.985092 
	C61.141773,121.399689 60.283562,121.797562 59.190819,122.040672 
z"/>
<path fill="#5CDA61" opacity="1.000000" stroke="none" 
	d="
M82.413620,115.958595 
	C82.857925,115.384567 83.604485,114.768570 84.675850,114.164825 
	C84.239059,114.756920 83.477470,115.336777 82.413620,115.958595 
z"/>
<path fill="#5CDA61" opacity="1.000000" stroke="none" 
	d="
M57.839943,77.968742 
	C57.540321,78.334175 57.051136,78.589142 56.280525,78.825027 
	C56.549526,78.490059 57.099957,78.174171 57.839943,77.968742 
z"/>
<path fill="#5CDA61" opacity="1.000000" stroke="none" 
	d="
M79.856339,55.980446 
	C79.399254,55.973003 78.878784,55.733433 78.170197,55.274490 
	C78.585716,55.286186 79.189331,55.517250 79.856339,55.980446 
z"/>
<path fill="#5CDA61" opacity="1.000000" stroke="none" 
	d="
M124.158752,103.028656 
	C124.458832,102.663124 124.948380,102.408463 125.719421,102.173798 
	C125.450012,102.509048 124.899117,102.824287 124.158752,103.028656 
z"/>
<path fill="#5CDA61" opacity="1.000000" stroke="none" 
	d="
M122.852982,58.995319 
	C122.548653,59.354866 122.055580,59.600105 121.280853,59.828407 
	C121.554207,59.501320 122.109222,59.191166 122.852982,58.995319 
z"/>
<path fill="#5CDA61" opacity="1.000000" stroke="none" 
	d="
M91.857758,68.006912 
	C91.552460,68.369797 91.057976,68.617210 90.281425,68.845764 
	C90.555771,68.515083 91.112167,68.203262 91.857758,68.006912 
z"/>
<path fill="#5CDA61" opacity="1.000000" stroke="none" 
	d="
M111.977394,75.792130 
	C111.980064,75.636574 112.197609,75.352898 112.703766,75.066666 
	C112.725677,75.264061 112.458977,75.464027 111.977394,75.792130 
z"/>
<path fill="#5CD961" opacity="1.000000" stroke="none" 
	d="
M88.887711,81.873199 
	C99.350792,78.702194 99.350792,78.702194 99.350746,88.754036 
	C99.350700,97.372635 99.353699,97.382996 91.115875,99.767845 
	C88.274315,100.590469 85.413712,101.347328 81.955139,102.301620 
	C81.955139,96.507858 81.439072,91.160896 82.255058,86.025597 
	C82.515526,84.386421 86.309418,83.308701 88.887711,81.873199 
z"/>
<path fill="#4FBC53" opacity="1.000000" stroke="none" 
	d="
M111.411171,92.155151 
	C111.893936,92.205269 112.287666,92.484421 112.857040,92.930954 
	C112.462502,92.860275 111.892311,92.622231 111.411171,92.155151 
z"/>
</svg>